<?xml version="1.0" encoding="UTF-8" standalone="no"?>
<svg width="261px" height="56px" viewBox="0 0 261 56" version="1.1" xmlns="http://www.w3.org/2000/svg" xmlns:xlink="http://www.w3.org/1999/xlink">
    <!-- Generator: Sketch 40.2 (33826) - http://www.bohemiancoding.com/sketch -->
    <title>Artboard 6</title>
    <desc>Created with Sketch.</desc>
    <defs></defs>
    <g id="Page-1" stroke="none" stroke-width="1" fill="none" fill-rule="evenodd">
        <g id="Artboard-6" fill="#FFFFFF">
            <g id="Group-4">
                <g id="Group">
                    <text id="PRO" font-family="LucidaGrande-Bold, Lucida Grande" font-size="48" font-weight="bold" letter-spacing="-1">
                        <tspan x="0" y="46">PR</tspan>
                        <tspan x="60.5546875" y="46">O</tspan>
                    </text>
                    <text id="IDER" font-family="LucidaGrande-Bold, Lucida Grande" font-size="48" font-weight="bold" letter-spacing="-1">
                        <tspan x="142.575107" y="46">IDE</tspan>
                        <tspan x="222.379795" y="46">R</tspan>
                    </text>
                    <path d="M134.044662,28.1948266 C135.903541,26.2005323 137,23.7458798 137,21.0914516 C137,14.4135273 130.060414,9 121.5,9 C112.939586,9 106,14.4135273 106,21.0914516 C106,23.7458798 107.096459,26.2005323 108.955338,28.1948266 L120.257978,42.4037074 C120.943928,43.2660349 122.054952,43.2674436 122.742022,42.4037074 L134.044662,28.1948266 Z M138.90066,30.6250821 C141.479105,27.8588029 143,24.4539623 143,20.7720136 C143,11.5090863 133.374122,4 121.5,4 C109.625878,4 100,11.5090863 100,20.7720136 C100,24.4539623 101.520895,27.8588029 104.09934,30.6250821 L119.011502,49.371599 C120.385861,51.0993466 122.619663,51.0924013 123.988498,49.371599 L138.90066,30.6250821 Z M119.647059,26 L119.647059,22.4 L123.352941,22.4 L123.352941,26 L128.294118,26 L129.529412,20 L132,20 L121.5,14 L111,20 L113.470588,20 L114.705882,26 L119.647059,26 Z" id="Combined-Shape"></path>
                </g>
            </g>
        </g>
    </g>
</svg>